<?xml version="1.0" encoding="UTF-8"?>
<svg id="Capa_2" data-name="Capa 2" xmlns="http://www.w3.org/2000/svg" viewBox="0 0 641.93 655.2">
  <defs>
    <style>
      .cls-1 {
        fill: #0070f3;
      }
    </style>
  </defs>
  <g id="Capa_1-2" data-name="Capa 1">
    <g>
      <path class="cls-1" d="M336.28,0c62.79,0,145.67.17,184.87,1,46.89,7.02,82.41,27.72,102.74,59.87,19.99,31.62,23.44,71.63,10,115.72-19.13,49.16-52.07,115.23-63.88,145.31-17.63-18.02-49.93-51.12-63.32-64.94,21.27-40.8,58.15-105.59,48.07-137.95-3.61-11.59-14.6-46.86-176.51-46.86-41.11,0-75.1,2.39-78.79,2.66-12.85.23-23.61,7.37-28.66,18.74-5.13,11.56-3.05,24.58,5.44,33.97l321.19,323.89c9.06,9.14,11.63,22.89,6.48,34.69l-33.38,76.45c-48.07-51.38-97.14-103.22-144.69-153.46-81.28-85.86-165.32-174.64-246.35-263.25-17.89-19.51-22.01-48.52-10.25-72.21l18.88-38.03C198.92,13.87,221.1.11,245.38.11h0c.4,0,40.31-.11,90.9-.11Z"/>
      <path class="cls-1" d="M305.66,655.2c-62.79,0-145.67-.17-184.87-1-46.89-7.02-82.41-27.72-102.74-59.87-19.99-31.62-23.44-71.63-10-115.72,19.13-49.16,52.07-115.23,63.88-145.31,17.63,18.02,49.93,51.12,63.32,64.94-21.27,40.8-58.15,105.59-48.07,137.95,3.61,11.59,14.6,46.86,176.51,46.86,41.11,0,75.1-2.39,78.79-2.66,12.85-.23,23.61-7.37,28.66-18.74,5.13-11.56,3.05-24.58-5.44-33.97L44.51,203.79c-9.06-9.14-11.63-22.89-6.48-34.69l33.38-76.45c48.07,51.38,97.14,103.22,144.69,153.46,81.28,85.86,165.32,174.64,246.35,263.25,17.89,19.51,22.01,48.52,10.25,72.21l-18.88,38.03c-10.8,21.75-32.98,35.5-57.26,35.5h0c-.4,0-40.31.11-90.9.11Z"/>
    </g>
  </g>
</svg>