<?xml version="1.0" encoding="UTF-8"?>
<svg id="Capa_2" data-name="Capa 2" xmlns="http://www.w3.org/2000/svg" viewBox="0 0 1487.18 489.88">
  <defs>
    <style>
      .cls-1 {
        fill: #0070f3;
      }
    </style>
  </defs>
  <g id="Capa_1-2" data-name="Capa 1">
    <g>
      <g>
        <path class="cls-1" d="M226.18,48.55c42.23,0,97.97.12,124.34.67,31.54,4.72,55.43,18.64,69.1,40.27,13.45,21.27,15.77,48.18,6.72,77.83-12.86,33.06-35.02,77.5-42.96,97.73-11.86-12.12-33.58-34.38-42.59-43.68,14.31-27.44,39.11-71.02,32.33-92.78-2.43-7.8-9.82-31.52-118.72-31.52-27.65,0-50.51,1.61-52.99,1.79-8.64.16-15.88,4.96-19.27,12.61-3.45,7.78-2.05,16.53,3.66,22.85l216.03,217.85c6.1,6.15,7.82,15.39,4.36,23.33l-22.45,51.42c-32.33-34.56-65.33-69.42-97.32-103.21-54.66-57.75-111.19-117.46-165.69-177.06-12.03-13.12-14.8-32.63-6.89-48.57l12.7-25.58c7.26-14.63,22.18-23.88,38.51-23.88h0c.27,0,27.11-.07,61.14-.07Z"/>
        <path class="cls-1" d="M205.58,489.23c-42.23,0-97.97-.12-124.34-.67-31.54-4.72-55.43-18.64-69.1-40.27-13.45-21.27-15.77-48.18-6.72-77.83,12.86-33.06,35.02-77.5,42.96-97.73,11.86,12.12,33.58,34.38,42.59,43.68-14.31,27.44-39.11,71.02-32.33,92.78,2.43,7.8,9.82,31.52,118.72,31.52,27.65,0,50.51-1.61,52.99-1.79,8.64-.16,15.88-4.96,19.27-12.61,3.45-7.78,2.05-16.53-3.66-22.85L29.93,185.61c-6.1-6.15-7.82-15.39-4.36-23.33l22.45-51.42c32.33,34.56,65.33,69.42,97.32,103.21,54.66,57.75,111.19,117.46,165.69,177.06,12.03,13.12,14.8,32.63,6.89,48.57l-12.7,25.58c-7.26,14.63-22.18,23.88-38.51,23.88h0c-.27,0-27.11.07-61.14.07Z"/>
      </g>
      <g>
        <g>
          <path class="cls-1" d="M909.74,205.51h-52.85c-10.24,0-15.57-4.51-15.57-20.89s5.32-22.67,15.57-22.67h118.12v-56.81h-123.44c-54.07,0-74.15,26.63-74.15,80.84,0,51.07,20.07,75.38,73.33,75.38h52.85c10.11,0,15.43,5.33,15.43,21.85s-5.32,22.53-15.43,22.53h-126.17v56.81h131.5c54.48,0,74.01-26.63,74.01-80.7s-19.53-76.33-73.19-76.33Z"/>
          <path class="cls-1" d="M1112.11,306.28c-20.35,0-28.81-28.4-28.81-54.21v-42.6c0-23.49,9.28-47.93,28.81-47.93h102.55v-56.4h-108.29c-62.13,0-86.98,55.99-86.98,104.32v42.6c0,50.11,24.85,110.47,86.98,110.47h109.24v-56.26h-103.5Z"/>
          <path class="cls-1" d="M1399.41,105.14h-78.65v56.4h78.65c10.11,0,15.43,5.33,15.43,15.57v185.44h65.27v-176.56c0-53.8-27.04-80.84-80.7-80.84ZM1255.08,362.54h65.68v-200.46h-65.68v200.46ZM1320.76,0h-65.68v104.6h65.68V0Z"/>
        </g>
        <path class="cls-1" d="M626.84,108.45c1.69,1.69-1.24,36.5-.03,44.86,1.03,7.08-2.78,7.44,7.08,6.99,30.3-1.4,46.46-24.95,54.87-51.09l55.73-.76v179.93c0,18.88-7.56,36.98-20.99,50.25l-3.4,3.36c-13.19,13.03-30.98,20.36-49.52,20.39l-98.91.17c-17.5.03-34.39-6.44-47.39-18.15l-5.98-5.38c-14.86-13.38-23.35-32.44-23.37-52.44l-.07-106.41c-.01-17.51,6.49-34.41,18.23-47.4l.93-1.03c13.39-14.82,32.43-23.28,52.41-23.28h60.4ZM626.84,164.92h-75.3v141.19h136.49v-89.19l-61.2-.21.02-51.79Z"/>
      </g>
      <g>
        <path class="cls-1" d="M494.44,471.33v-43.92c0-12.37,6.15-18.55,18.44-18.55h27.24c12.29,0,18.43,6.18,18.43,18.55v43.92c0,12.37-6.14,18.55-18.43,18.55h-27.24c-12.29,0-18.44-6.18-18.44-18.55ZM506.3,472.5c0,4.39,2.23,6.58,6.7,6.58h27.01c4.46,0,6.69-2.19,6.69-6.58v-46.26c0-4.38-2.23-6.58-6.69-6.58h-27.01c-4.47,0-6.7,2.19-6.7,6.58v46.26Z"/>
        <path class="cls-1" d="M607.41,485.89v-5.99h27.12c4.62,0,6.93-2.35,6.93-7.05s-1.88-7.59-5.64-8.22l-13.5-2.23c-9.94-1.72-14.91-7.2-14.91-16.44,0-11.59,6.02-17.38,18.08-17.38h19.14l5.4,3.99v5.99h-24.31c-4.7,0-7.05,2.35-7.05,7.05,0,4.38,1.95,6.93,5.87,7.63l13.62,2.23c9.79,1.64,14.68,7.28,14.68,16.91,0,11.66-6.07,17.5-18.2,17.5h-21.84l-5.4-3.99Z"/>
        <path class="cls-1" d="M700.64,471.8v-25.25c0-11.98,5.99-17.97,17.97-17.97h22.67l5.4,3.99v5.99h-27.71c-4.62,0-6.93,2.27-6.93,6.81v27.6c0,4.62,2.31,6.93,6.93,6.93h27.71v5.99l-5.4,3.99h-22.67c-11.98,0-17.97-6.03-17.97-18.09Z"/>
        <path class="cls-1" d="M808.92,489.88c-12.06,0-18.08-5.99-18.08-17.97s6.02-17.97,18.08-17.97h19.85v-8.57c0-4.54-2.27-6.81-6.81-6.81h-25.13v-5.99l5.4-3.99h19.96c11.98,0,17.97,5.99,17.97,17.97v43.33h-31.24ZM802.22,472.97c0,4.62,2.31,6.93,6.93,6.93h19.61v-17.03h-19.61c-4.62,0-6.93,2.31-6.93,6.93v3.17Z"/>
        <path class="cls-1" d="M890.41,489.88v-54.02c2.74-4.86,7.94-7.28,15.62-7.28h12.09l5.4,3.99v5.99h-15.27c-3.05,0-5.21.78-6.46,2.35v48.97h-11.39Z"/>
        <path class="cls-1" d="M1029.68,471.33v-43.92c0-12.37,6.15-18.55,18.44-18.55h27.24c12.29,0,18.43,6.18,18.43,18.55v43.92c0,12.37-6.14,18.55-18.43,18.55h-27.24c-12.29,0-18.44-6.18-18.44-18.55ZM1041.54,472.5c0,4.39,2.23,6.58,6.7,6.58h27.01c4.46,0,6.69-2.19,6.69-6.58v-46.26c0-4.38-2.23-6.58-6.69-6.58h-27.01c-4.47,0-6.7,2.19-6.7,6.58v46.26Z"/>
        <path class="cls-1" d="M1144.05,471.8v-25.25c0-11.98,5.99-17.97,17.97-17.97h22.67l5.4,3.99v5.99h-27.71c-4.62,0-6.93,2.27-6.93,6.81v27.6c0,4.62,2.31,6.93,6.93,6.93h27.71v5.99l-5.4,3.99h-22.67c-11.98,0-17.97-6.03-17.97-18.09Z"/>
        <path class="cls-1" d="M1237.53,489.88v-86.9h11.39v25.6h21.84c11.98,0,17.97,5.99,17.97,17.97v43.33h-11.39v-44.51c0-4.54-2.27-6.81-6.81-6.81h-21.6v51.32h-11.39Z"/>
        <path class="cls-1" d="M1338.51,471.8v-25.25c0-11.98,5.99-17.97,17.97-17.97h16.44c11.98,0,17.97,5.99,17.97,17.97v25.25c0,12.06-5.99,18.09-17.97,18.09h-16.44c-11.98,0-17.97-6.03-17.97-18.09ZM1349.91,472.97c0,4.62,2.31,6.93,6.93,6.93h15.85c4.54,0,6.81-2.31,6.81-6.93v-27.6c0-4.54-2.27-6.81-6.81-6.81h-15.85c-4.62,0-6.93,2.27-6.93,6.81v27.6Z"/>
        <path class="cls-1" d="M1455.94,489.88c-12.06,0-18.08-5.99-18.08-17.97s6.02-17.97,18.08-17.97h19.85v-8.57c0-4.54-2.27-6.81-6.81-6.81h-25.13v-5.99l5.4-3.99h19.96c11.98,0,17.97,5.99,17.97,17.97v43.33h-31.24ZM1449.25,472.97c0,4.62,2.31,6.93,6.93,6.93h19.61v-17.03h-19.61c-4.62,0-6.93,2.31-6.93,6.93v3.17Z"/>
      </g>
    </g>
  </g>
</svg>